<?xml version="1.0" encoding="UTF-8" standalone="no"?>
<!DOCTYPE svg PUBLIC "-//W3C//DTD SVG 1.1//EN"
 "http://www.w3.org/Graphics/SVG/1.1/DTD/svg11.dtd">
<!-- Generated by graphviz version 2.43.0 (0)
 -->
<!-- Title: keypadStates Pages: 1 -->
<svg width="463pt" height="199pt"
 viewBox="0.00 0.00 463.18 199.00" xmlns="http://www.w3.org/2000/svg" xmlns:xlink="http://www.w3.org/1999/xlink">
<g id="graph0" class="graph" transform="scale(1 1) rotate(0) translate(4 195)">
<title>keypadStates</title>
<polygon fill="white" stroke="transparent" points="-4,4 -4,-195 459.18,-195 459.18,4 -4,4"/>
<!-- start -->
<g id="node1" class="node">
<title>start</title>
<ellipse fill="#000000" stroke="black" cx="6" cy="-96" rx="6" ry="6"/>
</g>
<!-- IDLE -->
<g id="node2" class="node">
<title>IDLE</title>
<ellipse fill="none" stroke="#0088ee" cx="101" cy="-96" rx="36" ry="36"/>
<text text-anchor="middle" x="101" y="-92.9" font-family="Roboto,Helvetica,Arial,sans-serif" font-size="12.00">IDLE</text>
</g>
<!-- start&#45;&gt;IDLE -->
<g id="edge1" class="edge">
<title>start&#45;&gt;IDLE</title>
<path fill="none" stroke="#0088ee" d="M12,-96C20.19,-96 37.24,-96 54.17,-96"/>
<polygon fill="#0088ee" stroke="#0088ee" points="54.62,-99.5 64.62,-96 54.62,-92.5 54.62,-99.5"/>
<text text-anchor="middle" x="38.5" y="-99.4" font-family="Roboto,Helvetica,Arial,sans-serif" font-size="12.00">init</text>
</g>
<!-- ACTIVE -->
<g id="node3" class="node">
<title>ACTIVE</title>
<ellipse fill="none" stroke="#0088ee" cx="252" cy="-96" rx="36" ry="36"/>
<text text-anchor="middle" x="252" y="-92.9" font-family="Roboto,Helvetica,Arial,sans-serif" font-size="12.00">ACTIVE</text>
</g>
<!-- IDLE&#45;&gt;ACTIVE -->
<g id="edge2" class="edge">
<title>IDLE&#45;&gt;ACTIVE</title>
<path fill="none" stroke="#0088ee" d="M137.31,-96C157.82,-96 183.86,-96 205.84,-96"/>
<polygon fill="#0088ee" stroke="#0088ee" points="205.94,-99.5 215.94,-96 205.94,-92.5 205.94,-99.5"/>
<text text-anchor="middle" x="176.5" y="-99.4" font-family="Roboto,Helvetica,Arial,sans-serif" font-size="12.00">MOUNT</text>
</g>
<!-- SUSPEND -->
<g id="node4" class="node">
<title>SUSPEND</title>
<ellipse fill="none" stroke="#0088ee" cx="418.59" cy="-134" rx="36.68" ry="36.68"/>
<text text-anchor="middle" x="418.59" y="-130.9" font-family="Roboto,Helvetica,Arial,sans-serif" font-size="12.00">SUSPEND</text>
</g>
<!-- IDLE&#45;&gt;SUSPEND -->
<g id="edge7" class="edge">
<title>IDLE&#45;&gt;SUSPEND</title>
<path fill="none" stroke="#0088ee" d="M128.2,-120.09C149.91,-138.31 182.53,-161.87 216,-172 270.12,-188.39 334.65,-169.83 375.86,-153.37"/>
<polygon fill="#0088ee" stroke="#0088ee" points="377.4,-156.52 385.31,-149.47 374.73,-150.05 377.4,-156.52"/>
<text text-anchor="middle" x="252" y="-181.4" font-family="Roboto,Helvetica,Arial,sans-serif" font-size="12.00">SUSPEND</text>
</g>
<!-- ACTIVE&#45;&gt;ACTIVE -->
<g id="edge8" class="edge">
<title>ACTIVE&#45;&gt;ACTIVE</title>
<path fill="none" stroke="#0088ee" d="M238.13,-129.22C237.98,-140.72 242.61,-150 252,-150 258.31,-150 262.47,-145.81 264.48,-139.57"/>
<polygon fill="#0088ee" stroke="#0088ee" points="268,-139.6 265.87,-129.22 261.07,-138.66 268,-139.6"/>
<text text-anchor="middle" x="252" y="-153.4" font-family="Roboto,Helvetica,Arial,sans-serif" font-size="12.00">event</text>
</g>
<!-- ACTIVE&#45;&gt;SUSPEND -->
<g id="edge3" class="edge">
<title>ACTIVE&#45;&gt;SUSPEND</title>
<path fill="none" stroke="#0088ee" d="M286.51,-106.66C292.95,-108.55 299.66,-110.42 306,-112 327.64,-117.39 351.9,-122.3 372.26,-126.11"/>
<polygon fill="#0088ee" stroke="#0088ee" points="371.74,-129.58 382.21,-127.95 373.01,-122.69 371.74,-129.58"/>
<text text-anchor="middle" x="335" y="-127.4" font-family="Roboto,Helvetica,Arial,sans-serif" font-size="12.00">SUSPEND</text>
</g>
<!-- PENDING -->
<g id="node5" class="node">
<title>PENDING</title>
<ellipse fill="none" stroke="#0088ee" cx="418.59" cy="-36" rx="36" ry="36"/>
<text text-anchor="middle" x="418.59" y="-32.9" font-family="Roboto,Helvetica,Arial,sans-serif" font-size="12.00">PENDING</text>
</g>
<!-- ACTIVE&#45;&gt;PENDING -->
<g id="edge5" class="edge">
<title>ACTIVE&#45;&gt;PENDING</title>
<path fill="none" stroke="#0088ee" d="M284.7,-80.94C291.66,-77.84 299.03,-74.69 306,-72 328.03,-63.49 353.01,-55.3 373.74,-48.89"/>
<polygon fill="#0088ee" stroke="#0088ee" points="375.01,-52.16 383.55,-45.89 372.96,-45.47 375.01,-52.16"/>
<text text-anchor="middle" x="335" y="-75.4" font-family="Roboto,Helvetica,Arial,sans-serif" font-size="12.00">UNMOUNT</text>
</g>
<!-- SUSPEND&#45;&gt;ACTIVE -->
<g id="edge4" class="edge">
<title>SUSPEND&#45;&gt;ACTIVE</title>
<path fill="none" stroke="#0088ee" d="M391.08,-109.7C382.97,-103.72 373.63,-98.13 364,-95 342.99,-88.17 318.54,-87.65 297.94,-89.17"/>
<polygon fill="#0088ee" stroke="#0088ee" points="297.51,-85.69 287.87,-90.09 298.15,-92.67 297.51,-85.69"/>
<text text-anchor="middle" x="335" y="-98.4" font-family="Roboto,Helvetica,Arial,sans-serif" font-size="12.00">RESUME</text>
</g>
<!-- PENDING&#45;&gt;IDLE -->
<g id="edge6" class="edge">
<title>PENDING&#45;&gt;IDLE</title>
<path fill="none" stroke="#0088ee" d="M382.75,-31.59C342.08,-27.52 273.11,-24.01 216,-38 189.2,-44.57 161.56,-58.42 140.21,-70.94"/>
<polygon fill="#0088ee" stroke="#0088ee" points="138.23,-68.05 131.47,-76.2 141.84,-74.05 138.23,-68.05"/>
<text text-anchor="middle" x="252" y="-41.4" font-family="Roboto,Helvetica,Arial,sans-serif" font-size="12.00">cleanup</text>
</g>
</g>
</svg>
